<svg id="Layer_1" enable-background="new 0 0 512.007 512.007" height="512" viewBox="0 0 512.007 512.007" width="512" xmlns="http://www.w3.org/2000/svg"><g><g fill="#020288"><path d="m278.755 274.564 98.252 56.726c4.699 2.737 10.883 1.166 13.66-3.66 2.762-4.783 1.123-10.899-3.66-13.66l-98.252-56.726c-11.681-6.199-21.25 10.248-10 17.32z"/><path d="m130.015 332.632c1.696 0 3.416-.433 4.99-1.342l100.025-57.75c4.783-2.761 6.422-8.877 3.66-13.66-2.762-4.782-8.878-6.422-13.66-3.66l-100.025 57.75c-8.832 5.158-5.098 18.659 5.01 18.662z"/><path d="m406.509 405.003h-140.503v-87.62c0-5.523-4.478-10-10-10s-10 4.477-10 10v87.62h-140.502c-13.166.451-13.324 19.484 0 20h301.005c13.147-.442 13.342-19.478 0-20z"/></g><g clip-rule="evenodd" fill="#ffbebc" fill-rule="evenodd"><path d="m121.957 417.005c0-17.486-4.321-33.963-11.952-48.422h-80c-26.589 47.806-6.715 112.989 40 138.422 31.057-17.966 51.952-51.542 51.952-90z"/><path d="m390.055 417.005c0 38.458 20.896 72.034 51.952 90 46.72-25.434 66.584-90.626 40-138.422h-80c-7.631 14.459-11.952 30.935-11.952 48.422z"/><path d="m294.977 317.382v-200.624l-38.97-22.5-38.972 22.5v200.624l38.971 22.5z"/></g><path d="m442.006 97.005c-5.503 0-10.86.639-16 1.845 1.634-25.334-15.761-48.06-40-52.842v-11.005c0-16.542-13.458-30-30-30h-30.542c-16.542 0-30 13.458-30 30v10h-73.673v-10c0-16.542-13.457-30-29.999-30h-30.543c-16.542 0-29.999 13.458-29.999 30v10.226c-26.845 2.407-47.015 26.421-45.244 53.621-43.037-10.617-86.588 23.696-86 68.155-.001 0-.001 181.578-.001 181.578 0 16.542 13.458 30 30 30h80c16.542 0 30-13.458 30-30v-175.805l116.001-66.973 116.001 66.973v175.805c0 16.542 13.458 30 30 30h80c16.542 0 30-13.458 30-30v-181.578c0-38.599-31.402-70-70.001-70zm.001 20c27.57 0 50 22.43 50 50v151.578h-100c0-.245-.001-151.443 0-151.667.05-27.53 22.46-49.912 50-49.911zm-36.001-22.002v11.988c-15.888 9.567-27.688 25.262-32.101 43.789l-107.899-62.296v-23.481h110c16.542 0 30 13.458 30 30zm-90.542-60c0-5.514 4.486-10 10-10h30.542c5.514 0 10 4.486 10 10v10h-50.542zm-154.215-10h30.543c5.514 0 9.999 4.486 9.999 10v10h-50.541v-10c0-5.515 4.486-10 9.999-10zm-55.243 70c0-16.542 13.458-30 30-30h110v23.481l-107.899 62.295c-4.414-18.527-16.213-34.222-32.101-43.789zm-36.001 22.002c27.54-.001 49.951 22.381 50 49.91.078.29-.055 151.377 0 151.668h-100v-151.578c0-27.57 22.43-50 50-50zm40 241.578h-80c-5.514 0-10-4.486-10-10v-10h100v10c0 5.514-4.486 10-10 10zm372.002 0h-80c-5.514 0-10-4.486-10-10v-10h100v10c0 5.514-4.486 10-10 10z" fill="#020288"/></g></svg>